<svg height="24" viewBox="0 0 512 512.001" width="24" xmlns="http://www.w3.org/2000/svg">
    <path
        d="m481.773438 189.652344c.472656-3.773438.710937-7.578125.710937-11.386719 0-47.96875-37.074219-87.4375-84.070313-91.265625-27.746093-53.261719-82.738281-87-143.570312-87-40.328125 0-78.96875 14.917969-108.804688 42.007812-25.707031 23.34375-43.078124 54.03125-49.878906 87.648438-24.300781 5.226562-46.484375 17.796875-63.648437 36.296875-20.964844 22.605469-32.511719 52.042969-32.511719 82.890625 0 64 49.5625 116.632812 112.320312 121.550781l-14.117187 44.273438c-3.355469 10.515625 2.453125 21.761719 12.96875 25.113281 2.019531.644531 4.066406.949219 6.078125.949219 8.464844 0 16.328125-5.421875 19.039062-13.917969l17.871094-56.046875h40.046875l-33.238281 115.488281c-3.054688 10.609375 3.070312 21.683594 13.679688 24.734375 1.847656.53125 3.707031.785157 5.539062.785157 8.683594 0 16.675781-5.703126 19.195312-14.464844l36.425782-126.542969h38.648437l-14.070312 44.125c-3.351563 10.515625 2.453125 21.761719 12.972656 25.113281 2.019531.644532 4.0625.953125 6.078125.953125 8.464844 0 16.328125-5.425781 19.035156-13.921875l17.945313-56.269531h42.46875l-33.304688 115.714844c-3.054687 10.609375 3.070313 21.683593 13.679688 24.734375 1.847656.535156 3.707031.785156 5.539062.785156 8.679688 0 16.675781-5.703125 19.195313-14.464844l36.488281-126.773437h3.695313l1.570312.007812c28.5625 0 55.28125-11.164062 75.226562-31.433593 19.804688-20.121094 30.710938-46.933594 30.710938-75.5-.003906-27.914063-10.777344-54.34375-29.914062-74.183594zm-76.015626 141.140625-1.429687-.003907c-.039063 0-.074219 0-.113281 0h-282.023438c-.074218 0-.144531 0-.21875.003907h-.160156c-45.136719-.0625-81.835938-36.796875-81.835938-81.949219 0-42.421875 33.074219-78.296875 75.296876-81.675781 9.613281-.773438 17.304687-8.292969 18.289062-17.886719 6.394531-62.3125 58.535156-109.304688 121.28125-109.304688 41.039062 0 78.535156 20.398438 100.933594 53.480469-33.925782 13.542969-57.960938 46.734375-57.960938 85.433594 0 11.039063 8.949219 19.984375 19.988282 19.984375 11.039062 0 19.984374-8.945312 19.984374-19.984375 0-28.65625 23.3125-51.96875 51.96875-51.96875.933594 0 1.84375-.085937 2.742188-.210937 27.714844.84375 50.007812 23.632812 50.007812 51.550781 0 4.503906-.585937 8.988281-1.75 13.34375-2.015624 7.550781.558594 15.585937 6.585938 20.566406 15.484375 12.78125 24.363281 31.613281 24.363281 51.664063 0 37.546874-28.972656 66.957031-65.949219 66.957031zm0 0"/>
</svg>
