<svg xmlns="http://www.w3.org/2000/svg" xmlns:xlink="http://www.w3.org/1999/xlink" viewBox="0 0 536.42 765.08"><defs><style>.a{fill:url(#a);}.b{fill:url(#b);}.c{fill:url(#c);}.d{fill:url(#d);}.e{fill:url(#e);}.f{fill:url(#f);}.g{fill:url(#g);}.h{fill:url(#h);}.i{fill:url(#i);}.j{fill:url(#j);}.k{fill:url(#k);}.l{fill:url(#l);}.m{fill:url(#m);}.n{fill:url(#n);}.o{fill:url(#o);}.p{fill:url(#p);}.q{fill:url(#q);}.r{fill:url(#r);}</style><linearGradient id="a" x1="-68.22" y1="103.07" x2="490.55" y2="661.84" gradientUnits="userSpaceOnUse"><stop offset="0" stop-color="#e41c77"/><stop offset="1" stop-color="#f9ac3f"/></linearGradient><linearGradient id="b" x1="280" y1="742.54" x2="280" y2="27.46" gradientUnits="userSpaceOnUse"><stop offset="0" stop-color="#272727"/><stop offset="0.09" stop-color="#232323"/><stop offset="0.66" stop-color="#090909"/><stop offset="1"/></linearGradient><linearGradient id="c" x1="268.3" y1="707.17" x2="268.3" y2="605.8" gradientUnits="userSpaceOnUse"><stop offset="0" stop-color="#feffff"/><stop offset="1" stop-color="#bababa"/></linearGradient><linearGradient id="d" x1="108.13" y1="120.96" x2="108.13" y2="59.46" xlink:href="#c"/><linearGradient id="e" x1="268.3" y1="293.21" x2="268.3" y2="192.03" xlink:href="#c"/><linearGradient id="f" x1="440.08" y1="583.87" x2="440.08" y2="521.96" xlink:href="#c"/><linearGradient id="g" x1="96.35" y1="377.29" x2="96.35" y2="315.18" xlink:href="#c"/><linearGradient id="h" x1="440.44" y1="377.18" x2="440.44" y2="315.05" xlink:href="#c"/><linearGradient id="i" x1="96.57" y1="583.99" x2="96.57" y2="521.82" xlink:href="#c"/><linearGradient id="j" x1="203.43" y1="662.46" x2="203.43" y2="471.67" xlink:href="#c"/><linearGradient id="k" x1="332.9" y1="662.32" x2="332.9" y2="471.55" xlink:href="#c"/><linearGradient id="l" x1="203.43" y1="428.11" x2="203.43" y2="237.14" xlink:href="#c"/><linearGradient id="m" x1="333.27" y1="427.41" x2="333.27" y2="236.97" xlink:href="#c"/><linearGradient id="n" x1="96.32" y1="220.68" x2="96.32" y2="158.57" xlink:href="#c"/><linearGradient id="o" x1="150.3" y1="636.46" x2="150.3" y2="107.95" xlink:href="#c"/><linearGradient id="p" x1="66.16" y1="575.56" x2="66.16" y2="59.85" xlink:href="#c"/><linearGradient id="q" x1="398.44" y1="629.02" x2="398.44" y2="270.23" xlink:href="#c"/><linearGradient id="r" x1="279.95" y1="716.66" x2="279.95" y2="188.24" xlink:href="#c"/></defs><title>loading2</title><path class="a" d="M279.17,767.54a41.23,41.23,0,0,1-21.64-5.88L32.22,623.18c-12-7.39-20.43-22.42-20.43-36.54V39.89c0-21.34,14.92-37.43,34.7-37.43A40.32,40.32,0,0,1,66.53,8L182.44,73.91C195,81,203.79,96.13,203.79,110.58v65.29l53.88-32.51a43.14,43.14,0,0,1,42.9-.06L527.48,279.24c12.21,7.31,20.73,22.36,20.73,36.59V586.65c0,14.15-8.44,29.18-20.52,36.55l-227,138.53a41.26,41.26,0,0,1-21.54,5.81Z" transform="translate(-11.79 -2.46)"/><path class="b" d="M36.79,444.21V586.65c0,5.52,3.81,12.34,8.52,15.24L270.62,740.36c4.71,2.9,12.34,2.9,17.06,0l227-138.52c4.72-2.88,8.54-9.69,8.54-15.21V315.83c0-5.52-3.84-12.3-8.58-15.14L287.72,164.74c-4.75-2.84-12.41-2.83-17.13,0l-91.8,55.39V110.58c0-5.52-3.89-12.21-8.7-14.94L54.18,29.78c-9.61-5.46-17.39-.93-17.39,10.11Z" transform="translate(-11.79 -2.46)"/><polygon class="c" points="261.61 606.12 261.61 605.8 274.98 605.8 274.98 606.12 274.98 707.17 261.61 707.17 261.61 606.12 261.61 606.12"/><path class="d" d="M153.35,108.48a6.68,6.68,0,0,1-6.66,11.59L62.91,71.94a6.68,6.68,0,1,1,6.66-11.59l83.78,48.13Z" transform="translate(-11.79 -2.46)"/><polygon class="e" points="261.61 292.85 261.61 192.47 261.61 192.03 274.98 192.03 274.98 192.47 274.98 292.85 274.98 293.21 261.61 293.21 261.61 292.85 261.61 292.85"/><polygon class="f" points="401.86 522.17 485.37 572.41 478.48 583.87 394.99 533.64 394.78 533.51 401.51 521.96 401.86 522.17 401.86 522.17"/><polygon class="g" points="58.03 315.31 141.76 365.68 135.13 377.29 51.14 326.76 50.93 326.64 57.82 315.18 58.03 315.31 58.03 315.31"/><polygon class="h" points="398.44 371.29 394.99 365.56 478.4 315.38 478.94 315.05 485.9 326.47 485.32 326.82 401.88 377.01 401.61 377.18 395.04 365.53 398.44 371.29 398.44 371.29"/><polygon class="i" points="134.76 522.13 138.21 527.85 134.68 522.17 134.99 521.99 135.26 521.82 142.18 533.26 141.97 533.38 141.74 533.53 57.86 583.99 50.97 572.53 134.76 522.13 134.76 522.13"/><polygon class="j" points="141.8 521.55 271.82 600.15 355.9 651.02 348.98 662.46 264.9 611.59 134.93 533.02 50.96 483.17 57.79 471.67 141.8 521.55 141.8 521.55"/><polygon class="k" points="264.59 600.23 268.29 605.81 264.11 600.59 264.85 600.08 394.66 521.98 478.48 471.55 485.37 483 401.88 533.23 271.75 611.53 268.3 605.8 272.47 611.02 271.66 611.58 187.31 662.32 180.42 650.87 264.59 600.23 264.59 600.23"/><polygon class="l" points="54.4 421.9 50.95 416.18 134.87 365.68 264.85 287.48 348.53 237.14 355.9 248.3 272.22 298.66 141.96 377.02 57.84 427.63 56.88 428.11 51.89 415.71 54.4 421.9 54.4 421.9"/><polygon class="m" points="271.56 287.24 268.11 292.97 271.44 287.18 401.77 365.63 398.44 371.43 401.89 365.7 485.37 415.96 478.48 427.42 394.99 377.15 398.32 371.35 394.87 377.08 264.96 298.87 268.3 293.08 264.97 298.87 181.17 248.43 188.06 236.97 271.56 287.24 271.56 287.24"/><polygon class="n" points="54.38 164.3 57.82 158.57 141.96 209.22 135.07 220.68 50.93 170.03 50.69 169.88 57.83 158.58 54.38 164.3 54.38 164.3"/><path class="o" d="M143.62,530.5V114.64a6.68,6.68,0,0,1,13.37,0V629.78a6.68,6.68,0,0,1-13.37,0V530.5Z" transform="translate(-11.79 -2.46)"/><path class="p" d="M59.48,479.93V66.53a6.68,6.68,0,1,1,13.37,0V568.88a6.68,6.68,0,0,1-13.37,0V479.93Z" transform="translate(-11.79 -2.46)"/><polygon class="q" points="391.75 527.91 391.75 371.43 391.75 270.87 405.12 270.23 405.12 371.05 405.12 527.5 405.12 629.02 391.75 629.02 391.75 527.91 391.75 527.91"/><path class="r" d="M199.11,653.33l84.29,50.92h-6.91l84.29-50.78,46-27.72,83.49-50.29L487,581.19V323.62l3.24,5.73-83.49-50.29-46.47-28-83.67-50.4h6.89l-83.68,50.24-46.09,27.77L69.82,329.22l3.24-5.71-.19,100.87v55.52l0,100.83L69.67,575l83,50.3,46.4,28ZM62.74,586.44a6.68,6.68,0,0,1-3.22-5.72l0-100.83V424.36l.19-100.88a6.68,6.68,0,0,1,3.24-5.71l83.93-50.56L193,239.44l83.69-50.24a6.68,6.68,0,0,1,6.89,0l83.67,50.4,46.47,28,83.49,50.29a6.68,6.68,0,0,1,3.24,5.73V581.19a6.68,6.68,0,0,1-3.24,5.73l-83.49,50.29-46,27.72L283.39,715.7a6.68,6.68,0,0,1-6.91,0L192.2,664.78l-46.41-28-83-50.31Z" transform="translate(-11.79 -2.46)"/></svg>