<svg xmlns="http://www.w3.org/2000/svg" width="140" height="20" xmlns:xlink="http://www.w3.org/1999/xlink">
  <defs>
    <path id="a" d="M0 19.68h139.82V.16H0z"/>
  </defs>
  <g fill="none" fill-rule="evenodd">
    <path fill="#FEFEFE" d="M24.68 16.43h2.06V3.73h-2.06"/>
    <g transform="translate(0 .208)">
      <path fill="#FEFEFE" d="M29.7 16.22V3.02l8.08 7.76.67.7c.22.25.46.53.7.84v-8.8h1.92v13.2l-8.24-7.9c-.22-.23-.43-.45-.63-.7-.2-.23-.4-.48-.6-.74v8.84h-1.9zM44 16.22V3.52h7.08v1.75h-5.03v3.16h5.03v1.82h-5.03v5.97M55.38 8.93h.38c1.1 0 1.8-.13 2.17-.38.36-.26.54-.7.54-1.36 0-.7-.2-1.2-.57-1.5-.4-.27-1.1-.42-2.14-.42h-.38v3.65zm-.13 1.6v5.7h-1.93V3.5h2.88c.84 0 1.5.07 1.96.18.47.1.87.3 1.2.55.4.3.7.7.9 1.18.22.5.33 1.03.33 1.6 0 1.03-.26 1.83-.75 2.4-.5.58-1.22.92-2.18 1.04l4.38 5.78H59.7l-4.2-5.7h-.25z"/>
      <path fill="#FEFEFE" d="M65.95 11.23h3.54l-1.3-2.9c-.08-.18-.16-.4-.24-.64l-.24-.8c-.07.27-.15.53-.23.77-.08.24-.16.46-.25.66l-1.3 2.9zm5.7 5l-1.43-3.28H65.2l-1.5 3.27h-2.16l6.16-13.2 6.14 13.2h-2.18zM81.77 9.7h5.03v.37l.04.84c0 1.8-.52 3.18-1.54 4.17-1.02 1-2.47 1.5-4.33 1.5-1.04 0-1.97-.17-2.8-.47-.8-.3-1.52-.77-2.13-1.4-.6-.6-1.06-1.32-1.4-2.15-.3-.83-.47-1.7-.47-2.66 0-.97.17-1.85.5-2.66.32-.8.8-1.53 1.45-2.15.62-.6 1.34-1.08 2.17-1.4.83-.3 1.72-.47 2.67-.47 1 0 1.9.18 2.68.54.8.37 1.5.93 2.12 1.68l-1.5 1.14c-.44-.5-.92-.88-1.46-1.13-.53-.24-1.13-.36-1.8-.36-1.37 0-2.5.45-3.37 1.33-.87.9-1.3 2.03-1.3 3.45 0 1.43.43 2.6 1.3 3.5.87.88 2 1.33 3.4 1.33 1.17 0 2.1-.27 2.78-.8.68-.56 1.02-1.3 1.02-2.26v-.2h-3.05V9.72z"/>
      <mask id="b" fill="#fff">
        <use xlink:href="#a"/>
      </mask>
      <path fill="#FEFEFE" d="M89.04 16.22h2.07V3.52h-2.06M93.34 13.68L95 12.9c.15.58.44 1 .85 1.3.42.3.95.46 1.6.46.6 0 1.1-.17 1.46-.5.37-.36.55-.8.55-1.4 0-.73-.6-1.4-1.85-1.98l-.4-.2c-1.4-.68-2.34-1.3-2.8-1.85-.47-.55-.7-1.22-.7-2.02 0-1.03.35-1.87 1.05-2.5.7-.65 1.63-.97 2.77-.97.94 0 1.72.18 2.35.54.63.36 1.07.88 1.3 1.56l-1.6.83c-.26-.4-.54-.7-.84-.88-.3-.18-.65-.27-1.05-.27-.55 0-1 .15-1.32.44-.33.3-.5.68-.5 1.16 0 .77.73 1.48 2.16 2.14l.26.12c1.26.58 2.12 1.14 2.6 1.7.46.55.7 1.24.7 2.07 0 1.2-.4 2.16-1.14 2.87-.76.7-1.8 1.06-3.08 1.06-1.08 0-1.97-.25-2.66-.75-.7-.5-1.14-1.2-1.36-2.12M107.93 5.27v10.95h-2.06V5.27h-3.38V3.5h8.8v1.77M112.9 16.22h2.07V3.52h-2.06M128.14 6.6c-.6-.5-1.2-.87-1.85-1.12-.66-.25-1.35-.37-2.07-.37-1.38 0-2.5.46-3.4 1.35-.86.9-1.3 2.04-1.3 3.46 0 1.38.43 2.5 1.28 3.4.86.9 1.93 1.34 3.22 1.34.75 0 1.46-.13 2.14-.4.68-.26 1.34-.67 1.96-1.2v2.33c-.55.4-1.16.7-1.8.9-.67.2-1.37.3-2.14.3-.97 0-1.87-.17-2.7-.5-.82-.3-1.54-.78-2.17-1.4-.6-.6-1.08-1.32-1.4-2.14-.35-.83-.5-1.7-.5-2.64 0-.94.15-1.8.5-2.63.32-.82.8-1.54 1.43-2.16.63-.6 1.35-1.1 2.17-1.4.82-.33 1.7-.5 2.65-.5.74 0 1.45.12 2.13.34.68.2 1.34.54 1.97.98l-.1 2.08zM129.97 13.68l1.65-.77c.16.58.44 1 .86 1.3.42.3.95.46 1.6.46.6 0 1.1-.17 1.46-.5.36-.36.54-.8.54-1.4 0-.73-.62-1.4-1.86-1.98-.17-.1-.3-.15-.4-.2-1.4-.68-2.33-1.3-2.8-1.85-.46-.55-.7-1.22-.7-2.02 0-1.03.36-1.87 1.06-2.5.7-.65 1.63-.97 2.77-.97.93 0 1.72.18 2.35.54.63.36 1.06.88 1.3 1.56l-1.6.83c-.26-.4-.54-.7-.84-.88-.3-.18-.66-.27-1.05-.27-.55 0-1 .15-1.3.44-.34.3-.5.68-.5 1.16 0 .77.7 1.48 2.15 2.14l.26.12c1.26.58 2.13 1.14 2.6 1.7.46.55.7 1.24.7 2.07 0 1.2-.38 2.16-1.14 2.87-.76.7-1.78 1.06-3.07 1.06-1.1 0-1.98-.25-2.67-.75-.7-.5-1.15-1.2-1.36-2.12M138.65 4.18h.1c.13 0 .24-.05.24-.15 0-.1-.08-.15-.23-.15h-.12v.3zm0 .56h-.24v-1c.1 0 .23-.03.4-.03.18 0 .26.05.34.1.05.03.1.1.1.2 0 .12-.1.2-.2.24.1.05.14.12.17.25l.08.24h-.25c-.03-.04-.04-.13-.07-.24-.02-.1-.08-.16-.2-.16h-.12v.4zm-.62-.52c0 .44.32.8.77.8.44 0 .76-.36.76-.8 0-.44-.32-.8-.76-.8-.45 0-.77.36-.77.8zm1.8 0c0 .56-.46 1-1.03 1-.57 0-1.03-.44-1.03-1 0-.55.46-1 1.03-1 .57 0 1.02.45 1.02 1z" mask="url(#b)"/>
      <path fill="#0099DB" d="M0 19.68h21.3V.16H0" mask="url(#b)"/>
      <path fill="#FEFEFE" d="M3.3 6.85h3.42V3.5h-3.4" mask="url(#b)"/>
      <path fill="#FEFEFE" d="M15.84 3.5h-7.9v6.7h3.2V6.8h3.45V13.1H6.6v-5h-3.3v6.15c0 1.18.94 2.13 2.1 2.13h12.54V5.6c0-1.16-.95-2.1-2.12-2.1" mask="url(#b)"/>
    </g>
  </g>
</svg>
