<?xml version="1.0" encoding="UTF-8"?>
<svg width="24px" height="24px" viewBox="0 0 24 24" version="1.1" xmlns="http://www.w3.org/2000/svg" xmlns:xlink="http://www.w3.org/1999/xlink">
    <!-- Generator: Sketch 51.3 (57544) - http://www.bohemiancoding.com/sketch -->
    <title>Icons/filter/contains</title>
    <desc>Created with Sketch.</desc>
    <path d="M5,5 L19,5 L19,19 L5,19 L5,5 Z M6,6 L6,18 L18,18 L18,6 L6,6 Z M15.16,10.576 L15.16,14.672 C15.1920002,15.0666686 15.5013304,15.301333 16.088,15.376 L16.04,16.32 C15.1973291,16.32 14.5626688,16.1066688 14.136,15.68 C13.1759952,16.1066688 12.2160048,16.32 11.256,16.32 C10.5199963,16.32 9.96000192,16.1120021 9.576,15.696 C9.19199808,15.2799979 9,14.6826706 9,13.904 C9,13.1253294 9.19733136,12.5520018 9.592,12.184 C9.98666864,11.8159982 10.6053291,11.5893338 11.448,11.504 L13.96,11.264 L13.96,10.576 C13.96,10.0319973 13.8426678,9.64266784 13.608,9.408 C13.3733322,9.17333216 13.0533354,9.056 12.648,9.056 C11.7946624,9.056 10.9093379,9.1093328 9.992,9.216 L9.496,9.264 L9.448,8.352 C10.6213392,8.11733216 11.6613288,8 12.568,8 C13.4746712,8 14.1333313,8.20799792 14.544,8.624 C14.9546687,9.04000208 15.16,9.69066224 15.16,10.576 Z M10.232,13.84 C10.232,14.8213382 10.6373293,15.312 11.448,15.312 C12.173337,15.312 12.8879965,15.1893346 13.592,14.944 L13.96,14.816 L13.96,12.176 L11.592,12.4 C11.1119976,12.4426669 10.7653344,12.5813322 10.552,12.816 C10.3386656,13.0506678 10.232,13.3919978 10.232,13.84 Z" id="path-1"></path>
    <g id="Icons/filter/contains" stroke="none" stroke-width="1" fill="none" fill-rule="evenodd">
        <g id="contains">
            <g id="Icon-24px">
                <polygon id="Shape" points="0 0 24 0 24 24 0 24"></polygon>
                <mask id="mask-2" fill="white">
                    <use xlink:href="#path-1"></use>
                </mask>
                <g id="Combined-Shape"></g>
                <g id="Colors/grays.600" mask="url(#mask-2)" fill="#000000" fill-opacity="0.54">
                    <rect id="grays.600" x="0" y="0" width="24" height="24"></rect>
                </g>
            </g>
        </g>
    </g>
</svg>