<svg xmlns="http://www.w3.org/2000/svg" viewBox="0 0 20 20" height="20" width="20">
   <title>Some Title</title>
   <desc>Some Description</desc>
   <path d="M 2.7324219,0 A 2.7369999,2.7369999 0 0 0 0,2.734375 v 10.53125 A 2.738,2.738 0 0 0 2.7324219,16 H 4 v 1.265625 A 2.738,2.738 0 0 0 6.7324219,20 H 17.267578 A 2.738,2.738 0 0 0 20,17.265625 V 6.734375 A 2.7369999,2.7369999 0 0 0 17.267578,4 H 16 V 2.734375 A 2.7369999,2.7369999 0 0 0 13.267578,0 Z m 0,2 H 13.267578 A 0.73399997,0.73399997 0 0 1 14,2.734375 V 6 H 2 V 2.734375 A 0.73399997,0.73399997 0 0 1 2.7324219,2 Z M 9,3 A 0.99999995,0.99999995 0 0 0 8,4 0.99999995,0.99999995 0 0 0 9,5 0.99999995,0.99999995 0 0 0 10,4 0.99999995,0.99999995 0 0 0 9,3 Z m 3.007812,0 A 0.99999999,0.99999999 0 1 0 12.917969,4.3964844 0.99999999,0.99999999 0 0 0 12.396484,3.0820312 0.99999999,0.99999999 0 0 0 12.007812,3 Z M 16,6 h 1.267578 A 0.73399997,0.73399997 0 0 1 18,6.734375 V 10 H 16 Z M 2,8 h 12 v 5.265625 A 0.73399997,0.73399997 0 0 1 13.267578,14 H 2.7324219 A 0.73399997,0.73399997 0 0 1 2,13.265625 Z m 14,4 h 2 v 5.265625 A 0.73399997,0.73399997 0 0 1 17.267578,18 H 6.7324219 A 0.73399997,0.73399997 0 0 1 6,17.265625 V 16 h 7.267578 A 2.738,2.738 0 0 0 16,13.265625 Z" />
</svg>
