<?xml version="1.0" encoding="UTF-8"?>
<svg width="24px" height="24px" viewBox="0 0 24 24" version="1.1" xmlns="http://www.w3.org/2000/svg" xmlns:xlink="http://www.w3.org/1999/xlink">
    <!-- Generator: Sketch 51.3 (57544) - http://www.bohemiancoding.com/sketch -->
    <title>Icons/filter/does not contain</title>
    <desc>Created with Sketch.</desc>
    <path d="M17.3578644,6 L6,6 L6,17.3578644 L9.02162818,14.3362362 C9.00720939,14.1989667 9,14.054888 9,13.904 C9,13.1253294 9.19733136,12.5520018 9.592,12.184 C9.98666864,11.8159982 10.6053291,11.5893338 11.448,11.504 L11.8967374,11.461127 L13.7557663,9.60209803 C13.7131731,9.52861698 13.6639177,9.46391769 13.608,9.408 C13.3733322,9.17333216 13.0533354,9.056 12.648,9.056 C11.7946624,9.056 10.9093379,9.1093328 9.992,9.216 L9.496,9.264 L9.448,8.352 C10.6213392,8.11733216 11.6613288,8 12.568,8 C13.4746712,8 14.1333313,8.20799792 14.544,8.624 C14.575355,8.6557622 14.605513,8.68889233 14.6344739,8.72339041 L17.3578644,6 Z M18,6.77207794 L15.0768537,9.69522422 C15.1322847,9.95714034 15.16,10.2507319 15.16,10.576 L15.16,14.672 C15.1920002,15.0666686 15.5013304,15.301333 16.088,15.376 L16.04,16.32 C15.1973291,16.32 14.5626688,16.1066688 14.136,15.68 C13.1759952,16.1066688 12.2160048,16.32 11.256,16.32 C10.5199963,16.32 9.96000192,16.1120021 9.576,15.696 C9.49578886,15.6091046 9.42395518,15.5142977 9.36049891,15.411579 L6.77207794,18 L18,18 L18,6.77207794 Z M13.4603397,11.3117382 L13.96,11.264 L13.96,10.8120779 L13.4603397,11.3117382 Z M12.4535786,12.3184993 L10.3037613,14.4683166 C10.4528539,15.0307743 10.834265,15.312 11.448,15.312 C12.173337,15.312 12.8879965,15.1893346 13.592,14.944 L13.96,14.816 L13.96,12.176 L12.4535786,12.3184993 Z M5,5 L19,5 L19,19 L5,19 L5,5 Z" id="path-1"></path>
    <g id="Icons/filter/does-not-contain" stroke="none" stroke-width="1" fill="none" fill-rule="evenodd">
        <g id="does-not-contain">
            <g id="Icon-24px">
                <polygon id="Shape" points="0 0 24 0 24 24 0 24"></polygon>
                <mask id="mask-2" fill="white">
                    <use xlink:href="#path-1" style="pointer-events: none;"></use>
                </mask>
                <g id="Combined-Shape"></g>
                <g id="Colors/grays.600" mask="url(#mask-2)" fill="#000000" fill-opacity="0.54">
                    <rect id="grays.600" x="0" y="0" width="24" height="24"></rect>
                </g>
            </g>
        </g>
    </g>
</svg>