<?xml version="1.0" encoding="UTF-8"?>
<svg width="24px" height="24px" viewBox="0 0 24 24" version="1.1" xmlns="http://www.w3.org/2000/svg" xmlns:xlink="http://www.w3.org/1999/xlink">
    <!-- Generator: Sketch 51.3 (57544) - http://www.bohemiancoding.com/sketch -->
    <title>Icons/filter/ends with</title>
    <desc>Created with Sketch.</desc>
    <path d="M3,17.16 L3,15.336 L4.312,15.336 L4.312,17.16 L3,17.16 Z M7.08,17.16 L7.08,15.336 L8.376,15.336 L8.376,17.16 L7.08,17.16 Z M11.144,17.16 L11.144,15.336 L12.456,15.336 L12.456,17.16 L11.144,17.16 Z M20.478,11.576 L20.478,15.672 C20.5100002,16.0666686 20.8193304,16.301333 21.406,16.376 L21.358,17.32 C20.5153291,17.32 19.8806688,17.1066688 19.454,16.68 C18.4939952,17.1066688 17.5340048,17.32 16.574,17.32 C15.8379963,17.32 15.2780019,17.1120021 14.894,16.696 C14.5099981,16.2799979 14.318,15.6826706 14.318,14.904 C14.318,14.1253294 14.5153314,13.5520018 14.91,13.184 C15.3046686,12.8159982 15.9233291,12.5893338 16.766,12.504 L19.278,12.264 L19.278,11.576 C19.278,11.0319973 19.1606678,10.6426678 18.926,10.408 C18.6913322,10.1733322 18.3713354,10.056 17.966,10.056 C17.1126624,10.056 16.2273379,10.1093328 15.31,10.216 L14.814,10.264 L14.766,9.352 C15.9393392,9.11733216 16.9793288,9 17.886,9 C18.7926712,9 19.4513313,9.20799792 19.862,9.624 C20.2726687,10.0400021 20.478,10.6906622 20.478,11.576 Z M15.55,14.84 C15.55,15.8213382 15.9553293,16.312 16.766,16.312 C17.491337,16.312 18.2059965,16.1893346 18.91,15.944 L19.278,15.816 L19.278,13.176 L16.91,13.4 C16.4299976,13.4426669 16.0833344,13.5813322 15.87,13.816 C15.6566656,14.0506678 15.55,14.3919978 15.55,14.84 Z" id="path-1"></path>
    <g id="Icons/filter/ends-with" stroke="none" stroke-width="1" fill="none" fill-rule="evenodd">
        <g id="ends-with">
            <g id="Icon-24px">
                <polygon id="Shape" points="0 0 24 0 24 24 0 24"></polygon>
                <mask id="mask-2" fill="white">
                    <use xlink:href="#path-1" style="pointer-events: none;"></use>
                </mask>
                <g id="…a"></g>
                <g id="Colors/grays.600" mask="url(#mask-2)" fill="#000000" fill-opacity="0.54">
                    <rect id="grays.600" x="0" y="0" width="24" height="24"></rect>
                </g>
            </g>
        </g>
    </g>
</svg>