<?xml version="1.0" encoding="UTF-8"?>
<svg width="24px" height="24px" viewBox="0 0 24 24" version="1.1" xmlns="http://www.w3.org/2000/svg" xmlns:xlink="http://www.w3.org/1999/xlink">
    <!-- Generator: Sketch 51.3 (57544) - http://www.bohemiancoding.com/sketch -->
    <title>Icons/filter/starts with</title>
    <desc>Created with Sketch.</desc>
    <path d="M2,17.072 L5.04,6 L7.728,6 L10.768,17.072 L9.552,17.072 L8.752,14.224 L4.016,14.224 L3.216,17.072 L2,17.072 Z M5.968,7.056 L4.288,13.12 L8.48,13.12 L6.8,7.056 L5.968,7.056 Z M12.374,17.072 L12.374,15.248 L13.686,15.248 L13.686,17.072 L12.374,17.072 Z M16.454,17.072 L16.454,15.248 L17.75,15.248 L17.75,17.072 L16.454,17.072 Z M20.518,17.072 L20.518,15.248 L21.83,15.248 L21.83,17.072 L20.518,17.072 Z" id="path-1"></path>
    <g id="Icons/filter/starts-with" stroke="none" stroke-width="1" fill="none" fill-rule="evenodd">
        <g id="starts-with">
            <g id="Icon-24px">
                <polygon id="Shape" points="0 0 24 0 24 24 0 24"></polygon>
                <mask id="mask-2" fill="white">
                    <use xlink:href="#path-1"></use>
                </mask>
                <g id="A…"></g>
                <g id="Colors/grays.600" mask="url(#mask-2)" fill="#000000" fill-opacity="0.54">
                    <rect id="grays.600" x="0" y="0" width="24" height="24"></rect>
                </g>
            </g>
        </g>
    </g>
</svg>