<svg xmlns="http://www.w3.org/2000/svg" xmlns:xlink="http://www.w3.org/1999/xlink" viewBox="0 0 242 64"><defs><style>.a{fill:url(#a);}.b{fill:url(#b);}.c{fill:url(#c);}.d{fill:url(#d);}.e{fill:url(#e);}.f{fill:url(#f);}.g{fill:url(#g);}.h{fill:url(#h);}.i{fill:url(#i);}.j{fill:url(#j);}.k{fill:url(#k);}.l{fill:url(#l);}.m{fill:url(#m);}.n{fill:url(#n);}.o{fill:url(#o);}.p{fill:url(#p);}.q{fill:#231f20;}.r{fill:none;}</style><linearGradient id="a" x1="34.12" y1="13.13" x2="34.12" y2="4.8" gradientTransform="matrix(1, 0, 0, -1, 0, 63.5)" gradientUnits="userSpaceOnUse"><stop offset="0" stop-color="#fcb13b"/><stop offset="1" stop-color="#e31d77"/></linearGradient><linearGradient id="b" x1="79.48" y1="-5.26" x2="79.48" y2="-10.31" gradientTransform="matrix(1, 0, 0, -1, -59.48, -0.46)" xlink:href="#a"/><linearGradient id="c" x1="34.12" y1="47.11" x2="34.12" y2="38.8" xlink:href="#a"/><linearGradient id="d" x1="48.22" y1="20.01" x2="48.22" y2="14.93" xlink:href="#a"/><linearGradient id="e" x1="20" y1="36.99" x2="20" y2="31.89" xlink:href="#a"/><linearGradient id="f" x1="48.25" y1="37" x2="48.25" y2="31.9" xlink:href="#a"/><linearGradient id="g" x1="20.01" y1="20.02" x2="20.01" y2="14.92" xlink:href="#a"/><linearGradient id="h" x1="28.79" y1="24.14" x2="28.79" y2="8.48" xlink:href="#a"/><linearGradient id="i" x1="39.42" y1="24.15" x2="39.42" y2="8.49" xlink:href="#a"/><linearGradient id="j" x1="28.79" y1="43.4" x2="28.79" y2="27.72" xlink:href="#a"/><linearGradient id="k" x1="39.45" y1="43.42" x2="39.45" y2="27.78" xlink:href="#a"/><linearGradient id="l" x1="19.99" y1="49.85" x2="19.99" y2="44.75" xlink:href="#a"/><linearGradient id="m" x1="82.94" y1="-9.25" x2="82.94" y2="-52.65" gradientTransform="matrix(1, 0, 0, -1, -59.48, -0.46)" xlink:href="#a"/><linearGradient id="n" x1="76.03" y1="-5.3" x2="76.03" y2="-47.65" gradientTransform="matrix(1, 0, 0, -1, -59.48, -0.46)" xlink:href="#a"/><linearGradient id="o" x1="44.8" y1="40.69" x2="44.8" y2="11.22" xlink:href="#a"/><linearGradient id="p" x1="93.59" y1="-15.84" x2="93.59" y2="-59.23" gradientTransform="matrix(1, 0, 0, -1, -59.48, -0.46)" xlink:href="#a"/></defs><title>jsblocks-logo</title><polygon class="a" points="33.57 50.4 33.57 50.37 34.66 50.37 34.66 50.4 34.66 58.7 33.57 58.7 33.57 50.4 33.57 50.4"/><path class="b" d="M23.71,8.83a.55.55,0,0,1-.55,1h0l-6.88-4a.55.55,0,1,1,.55-1Z" transform="translate(0 0.5)"/><polygon class="c" points="33.57 24.67 33.57 16.43 33.57 16.39 34.66 16.39 34.66 16.43 34.66 24.67 34.66 24.7 33.57 24.7 33.57 24.67 33.57 24.67"/><polygon class="d" points="45.09 43.5 51.94 47.63 51.38 48.57 44.52 44.45 44.5 44.44 45.06 43.49 45.09 43.5 45.09 43.5"/><polygon class="e" points="16.85 26.52 23.73 30.65 23.18 31.61 16.28 27.46 16.27 27.45 16.83 26.51 16.85 26.52 16.85 26.52"/><polygon class="f" points="44.8 31.11 44.52 30.64 51.37 26.52 51.41 26.5 51.98 27.43 51.94 27.46 45.09 31.58 45.06 31.6 44.52 30.64 44.8 31.11 44.8 31.11"/><polygon class="g" points="23.15 43.5 23.43 43.97 23.14 43.51 23.17 43.49 23.19 43.48 23.76 44.41 23.74 44.42 23.72 44.44 16.84 48.58 16.27 47.64 23.15 43.5 23.15 43.5"/><polygon class="h" points="23.73 43.45 34.41 49.91 41.31 54.09 40.74 55.02 33.84 50.85 23.16 44.4 16.27 40.3 16.83 39.36 23.73 43.45 23.73 43.45"/><polygon class="i" points="33.81 49.91 34.12 50.37 33.77 49.94 33.83 49.9 44.49 43.49 51.38 39.35 51.94 40.29 45.09 44.41 34.4 50.84 34.12 50.37 34.46 50.8 34.39 50.85 27.47 55.01 26.9 54.07 33.81 49.91 33.81 49.91"/><polygon class="j" points="16.55 35.27 16.27 34.8 23.16 30.65 33.83 24.23 40.7 20.1 41.31 21.01 34.44 25.15 23.74 31.58 16.83 35.74 16.75 35.78 16.34 34.76 16.55 35.27 16.55 35.27"/><polygon class="k" points="34.38 24.21 34.1 24.68 34.37 24.21 45.08 30.65 44.8 31.13 45.09 30.66 51.94 34.78 51.38 35.72 44.52 31.59 44.79 31.12 44.51 31.59 33.84 25.17 34.12 24.69 33.84 25.17 26.96 21.02 27.53 20.08 34.38 24.21 34.38 24.21"/><polygon class="l" points="16.55 14.12 16.83 13.65 23.74 17.8 23.18 18.75 16.27 14.59 16.25 14.57 16.83 13.65 16.55 14.12 16.55 14.12"/><path class="m" d="M22.91,43.49V9.34a.55.55,0,0,1,1.1,0h0v42.3a.55.55,0,0,1-1.1,0Z" transform="translate(0 0.5)"/><path class="n" d="M16,39.33V5.38a.55.55,0,0,1,1.1,0V46.64a.55.55,0,0,1-1.1,0Z" transform="translate(0 0.5)"/><polygon class="o" points="44.25 43.98 44.25 31.13 44.25 22.87 45.35 22.82 45.35 31.09 45.35 43.94 45.35 52.28 44.25 52.28 44.25 43.98 44.25 43.98"/><path class="p" d="M27.47,53.57l6.92,4.18h-.57l6.92-4.17,3.78-2.28,6.86-4.13-.27.47V26.5l.27.47-6.86-4.13-3.82-2.3L33.83,16.4h.57l-6.87,4.13-3.78,2.28L16.85,27l.27-.47,0,8.28V47.61l-.26-.47,6.82,4.13,3.81,2.3Zm-11.2-5.49a.55.55,0,0,1-.26-.47V34.77l0-8.28a.55.55,0,0,1,.27-.47l6.89-4.15L27,19.58l6.87-4.13a.55.55,0,0,1,.57,0l6.87,4.14,3.82,2.3L51.95,26a.55.55,0,0,1,.27.47V47.65a.55.55,0,0,1-.27.47l-6.86,4.13-3.78,2.28-6.93,4.17a.55.55,0,0,1-.57,0L26.9,54.51l-3.81-2.3-6.82-4.13Z" transform="translate(0 0.5)"/><path class="q" d="M70.12,21.65v9.5q0,.18-.17.18H69.5q-.15,0-.15-.18v-9.5q0-.18.15-.18h.45Q70.12,21.46,70.12,21.65Z" transform="translate(0 0.5)"/><path class="q" d="M75.69,30.89h-1a2.09,2.09,0,0,1-1.56-.58,2.15,2.15,0,0,1-.58-1.58v-3a2.17,2.17,0,0,1,.58-1.6,2.11,2.11,0,0,1,1.57-.58H78c.11,0,.17.06.17.18V31.3A2,2,0,0,1,76,33.48H73.17a.15.15,0,0,1-.17-.17v-.37c0-.1.06-.15.17-.15h2.73A1.4,1.4,0,0,0,77,32.4a1.58,1.58,0,0,0,.37-1.13V30.09h-.06A1.59,1.59,0,0,1,75.69,30.89Zm1.66-2.2V24.33a.12.12,0,0,0-.14-.14H74.79a1.43,1.43,0,0,0-1.08.39,1.56,1.56,0,0,0-.38,1.13v3a1.54,1.54,0,0,0,.38,1.11,1.43,1.43,0,0,0,1.08.39h1a1.64,1.64,0,0,0,1.16-.39A1.44,1.44,0,0,0,77.35,28.69Z" transform="translate(0 0.5)"/><path class="q" d="M81,31.33h-.45q-.15,0-.15-.18V23.69q0-.18.15-.18H81q.17,0,.17.18v.61h.06a1.65,1.65,0,0,1,1.6-.8h1a2.06,2.06,0,0,1,1.55.58,2.19,2.19,0,0,1,.57,1.6v5.47q0,.18-.15.18h-.44q-.17,0-.17-.18V25.71a1.59,1.59,0,0,0-.37-1.12,1.39,1.39,0,0,0-1.07-.4h-1a1.64,1.64,0,0,0-1.16.39,1.44,1.44,0,0,0-.42,1.11v5.45Q81.19,31.33,81,31.33Z" transform="translate(0 0.5)"/><path class="q" d="M88.28,22.21V20.74q0-.17.15-.17h.46q.15,0,.15.17v1.47q0,.18-.15.18h-.46Q88.28,22.4,88.28,22.21Zm0,8.94V23.69q0-.18.15-.18h.45c.11,0,.17.06.17.18v7.46q0,.18-.15.18h-.46Q88.28,31.33,88.28,31.15Z" transform="translate(0 0.5)"/><path class="q" d="M91.77,24.19h-.94q-.17,0-.17-.15v-.37a.15.15,0,0,1,.17-.17h.94a.12.12,0,0,0,.14-.14V22.12c0-.12.06-.18.17-.18h.45c.11,0,.17.06.17.18v1.24a.12.12,0,0,0,.14.14h1.83a.15.15,0,0,1,.17.17V24q0,.15-.17.15H92.83a.12.12,0,0,0-.14.14v4.84a1.44,1.44,0,0,0,.4,1.09,1.55,1.55,0,0,0,1.12.38h.6a.15.15,0,0,1,.17.17v.35a.15.15,0,0,1-.17.17h-.66a2.3,2.3,0,0,1-1.63-.57,2,2,0,0,1-.61-1.57V24.33A.12.12,0,0,0,91.77,24.19Z" transform="translate(0 0.5)"/><path class="q" d="M102,31.33H98.75a2.11,2.11,0,0,1-1.57-.58,2.17,2.17,0,0,1-.58-1.6V25.68a2.17,2.17,0,0,1,.58-1.6,2.11,2.11,0,0,1,1.57-.58h1.32a2,2,0,0,1,2.17,2.18v1.95a.16.16,0,0,1-.18.18H97.51a.12.12,0,0,0-.14.14v1.18a1.56,1.56,0,0,0,.37,1.11,1.4,1.4,0,0,0,1.07.39H102a.15.15,0,0,1,.17.17v.35A.15.15,0,0,1,102,31.33ZM97.51,27.2h3.82a.12.12,0,0,0,.14-.14V25.7a1.56,1.56,0,0,0-.37-1.11,1.4,1.4,0,0,0-1.07-.39H98.81a1.4,1.4,0,0,0-1.07.39,1.56,1.56,0,0,0-.37,1.11v1.37A.12.12,0,0,0,97.51,27.2Z" transform="translate(0 0.5)"/><path class="q" d="M109.81,21.46h.43a.15.15,0,0,1,.17.17v7.52a2.17,2.17,0,0,1-.58,1.6,2.11,2.11,0,0,1-1.57.58h-1.72a2.11,2.11,0,0,1-1.57-.58,2.17,2.17,0,0,1-.58-1.6V21.65q0-.18.15-.18H105c.11,0,.17.06.17.18v7.48a1.59,1.59,0,0,0,.37,1.12,1.39,1.39,0,0,0,1.07.4h1.58a1.43,1.43,0,0,0,1.08-.39,1.57,1.57,0,0,0,.38-1.13V21.65Q109.64,21.46,109.81,21.46Z" transform="translate(0 0.5)"/><path class="q" d="M113.78,21.65v9.5q0,.18-.17.18h-.45q-.15,0-.15-.18v-9.5q0-.18.15-.18h.45Q113.78,21.46,113.78,21.65Z" transform="translate(0 0.5)"/><path class="q" d="M76.72,35h.64a.22.22,0,0,1,.25.25V46.56a3.26,3.26,0,0,1-.86,2.4,3.16,3.16,0,0,1-2.36.88h-2.3A3.2,3.2,0,0,1,69.72,49a3.23,3.23,0,0,1-.88-2.4V44.65a.22.22,0,0,1,.25-.25h.67a.22.22,0,0,1,.25.25v1.87a2.37,2.37,0,0,0,.55,1.69,2.11,2.11,0,0,0,1.61.59h2.1a2.15,2.15,0,0,0,1.62-.59,2.34,2.34,0,0,0,.56-1.69V35.3C76.47,35.12,76.55,35,76.72,35Z" transform="translate(0 0.5)"/><path class="q" d="M81.33,46.56v-.83a.22.22,0,0,1,.25-.25h.67a.22.22,0,0,1,.25.25v.76a2,2,0,0,0,2.23,2.3h2.4q2.23,0,2.23-2.33v-1a1.83,1.83,0,0,0-.83-1.59,5.51,5.51,0,0,0-2-.83l-2.36-.53a4.51,4.51,0,0,1-2-1,2.52,2.52,0,0,1-.83-2V38.29A3,3,0,0,1,84.57,35h2.67a3,3,0,0,1,3.25,3.27v.64a.22.22,0,0,1-.25.25h-.67a.22.22,0,0,1-.25-.25v-.58a2,2,0,0,0-2.23-2.3H84.71q-2.21,0-2.21,2.35v1.15q0,1.59,2.83,2.14,1.17.23,2.36.53a4.47,4.47,0,0,1,2,1.08,2.78,2.78,0,0,1,.83,2.12v1.13a3.24,3.24,0,0,1-.88,2.4,3.2,3.2,0,0,1-2.37.88H84.57A3.2,3.2,0,0,1,82.2,49,3.23,3.23,0,0,1,81.33,46.56Z" transform="translate(0 0.5)"/><path class="q" d="M94.08,49.44v-14a.35.35,0,0,1,.39-.39h5.46a3.63,3.63,0,0,1,2.65.92,3.47,3.47,0,0,1,.94,2.6v1.13a2.45,2.45,0,0,1-1.89,2.58,2.3,2.3,0,0,1,1.49.78,2.62,2.62,0,0,1,.59,1.8v1.47a3.47,3.47,0,0,1-.94,2.6,3.6,3.6,0,0,1-2.62.92H94.48A.35.35,0,0,1,94.08,49.44Zm2.49-8.11h3q1.75,0,1.75-1.68V38.59a1.49,1.49,0,0,0-1.7-1.66h-3c-.17,0-.25.08-.25.23V41.1C96.32,41.26,96.4,41.33,96.57,41.33Zm0,6.59H99.8q1.73,0,1.73-1.66V44.83q0-1.66-1.82-1.66H96.57c-.17,0-.25.08-.25.23v4.28C96.32,47.84,96.4,47.92,96.57,47.92Z" transform="translate(0 0.5)"/><path class="q" d="M114.65,49.83h-7.46a.35.35,0,0,1-.39-.39v-14a.35.35,0,0,1,.39-.39h1.45a.35.35,0,0,1,.39.39V47.6c0,.15.09.23.28.23h5.34q.39,0,.39.42v1.2A.35.35,0,0,1,114.65,49.83Z" transform="translate(0 0.5)"/><path class="q" d="M123.17,49.83H120.5a3.26,3.26,0,0,1-3.57-3.57V38.59A3.25,3.25,0,0,1,120.5,35h2.67a3.61,3.61,0,0,1,2.65.93,3.54,3.54,0,0,1,.94,2.64v7.67a3.28,3.28,0,0,1-3.59,3.57Zm-2.35-2h2a1.5,1.5,0,0,0,1.68-1.7V38.69a1.5,1.5,0,0,0-1.68-1.7h-2a1.49,1.49,0,0,0-1.66,1.7v7.48A1.49,1.49,0,0,0,120.82,47.87Z" transform="translate(0 0.5)"/><path class="q" d="M135.88,49.83h-2.67a3.26,3.26,0,0,1-3.57-3.57V38.59A3.24,3.24,0,0,1,133.21,35h2.67a3.26,3.26,0,0,1,3.57,3.57V39.7a.37.37,0,0,1-.42.41h-1.45c-.26,0-.39-.14-.39-.41v-1a1.49,1.49,0,0,0-1.66-1.7h-2a1.49,1.49,0,0,0-1.66,1.7v7.48a1.49,1.49,0,0,0,1.66,1.7h2a1.49,1.49,0,0,0,1.66-1.7v-1c0-.28.13-.42.39-.42H139a.37.37,0,0,1,.42.42v1.11a3.27,3.27,0,0,1-3.57,3.57Z" transform="translate(0 0.5)"/><path class="q" d="M144.15,49.83H142.7a.35.35,0,0,1-.39-.39v-14a.35.35,0,0,1,.39-.39h1.45a.35.35,0,0,1,.39.39v7.3h.07a5.09,5.09,0,0,1,.6-1.15l4.4-6.15a.82.82,0,0,1,.74-.39H152q.48,0,.16.44l-4.49,6.1,5.07,7.81q.28.46-.28.46h-1.29a1,1,0,0,1-.87-.39l-4-6.24-1.82,2.14v4.1A.35.35,0,0,1,144.15,49.83Z" transform="translate(0 0.5)"/><path class="q" d="M154.65,46.24v-.6a.35.35,0,0,1,.39-.39h1.47a.35.35,0,0,1,.39.39v.41a1.91,1.91,0,0,0,.43,1.39,2,2,0,0,0,1.42.43h1.59a1.93,1.93,0,0,0,1.43-.45,2,2,0,0,0,.44-1.46v-.53a1.38,1.38,0,0,0-.56-1.16,3,3,0,0,0-1.39-.55q-.83-.13-1.82-.36a16.15,16.15,0,0,1-1.82-.53,2.85,2.85,0,0,1-1.39-1.13,3.69,3.69,0,0,1-.56-2.12v-1A3.31,3.31,0,0,1,158.24,35h2.44a3.31,3.31,0,0,1,3.62,3.59v.51a.35.35,0,0,1-.39.39h-1.47a.35.35,0,0,1-.39-.39v-.3A1.56,1.56,0,0,0,160.2,37h-1.45a1.89,1.89,0,0,0-1.42.45,2.2,2.2,0,0,0-.43,1.53v.71q0,1,1.5,1.41c.44.11.93.2,1.46.28a12.12,12.12,0,0,1,1.6.34,6.74,6.74,0,0,1,1.47.61A2.82,2.82,0,0,1,164,43.46a3.92,3.92,0,0,1,.41,1.88v.9a3.31,3.31,0,0,1-3.59,3.59h-2.58a3.6,3.6,0,0,1-2.65-1A3.54,3.54,0,0,1,154.65,46.24Z" transform="translate(0 0.5)"/><path class="q" d="M118,26.31h-.22c-.06,0-.08,0-.08-.09V21.79s0-.07-.08-.07h-1.11c-.06,0-.09,0-.09-.08v-.18c0-.06,0-.08.09-.08h2.76c.06,0,.09,0,.09.08v.18c0,.06,0,.08-.09.08h-1.11c-.05,0-.08,0-.08.07v4.43C118.11,26.28,118.09,26.31,118,26.31Z" transform="translate(0 0.5)"/><path class="q" d="M123.73,21.37h.41c.05,0,.08,0,.08.09v4.75c0,.06,0,.09-.08.09h-.22c-.06,0-.08,0-.08-.09V22h0l-1.36,3.19a.13.13,0,0,1-.12.08h-.25a.11.11,0,0,1-.11-.08L120.59,22h0v4.26c0,.06,0,.09-.08.09h-.22c-.05,0-.08,0-.08-.09V21.46c0-.06,0-.09.08-.09h.41a.06.06,0,0,1,.07,0l1.44,3.37h0l1.44-3.37A.07.07,0,0,1,123.73,21.37Z" transform="translate(0 0.5)"/><rect class="r" width="242" height="64"/></svg>