<?xml version="1.0" encoding="utf-8"?>
<!-- Generator: Adobe Illustrator 26.2.1, SVG Export Plug-In . SVG Version: 6.00 Build 0)  -->
<svg version="1.1" id="Layer_1" xmlns="http://www.w3.org/2000/svg" xmlns:xlink="http://www.w3.org/1999/xlink" x="0px" y="0px"
	 viewBox="0 0 463 182" style="enable-background:new 0 0 463 182;" xml:space="preserve">
<style type="text/css">
	.st0{fill:#C93915;}
	.st1{opacity:0.3;}
	.st2{fill:#FF8700;}
	.st3{fill:#FFFFFF;}
	.st4{fill:#27265F;}
	.st5{fill:#0099FF;}
	.st6{fill:#F49021;}
	.st7{clip-path:url(#SVGID_00000155126689786812236470000002353275997319394478_);fill:#F05A2B;}
	.st8{clip-path:url(#SVGID_00000060017871293669067230000002484540828054937016_);fill:#F05A2B;}
</style>
<rect class="st0" width="463" height="182"/>
<g class="st1">
	<path class="st2" d="M381.2,52.5L381.2,52.5L381.2,52.5z"/>
	<path class="st2" d="M409.4,52.7c0,1.9-0.6,3.6-1.9,5.2c-2.4,2.6-6,3.5-9.2,2.1c-4.5-2-6.1-7.3-3.8-11.4c1.2-2,3.1-2.8,4.9-4.1
		c2.5-1.8,4.4-3.6,5.9-5.9c0.3-0.5,0.5-0.9,0.9-1.6c4.4-7.6,3.5-16.8-1.5-23.5c-0.2-0.3-0.7-0.2-0.8,0.2c-0.2,1.5-0.8,2.9-1.5,4.2
		c-2.2,3.8-5.8,5.7-10,6.4c-4.4,0.8-8.8,1.5-13,2.6c-4.4,1-8.8,1.9-12.6,4.1c-4.4,2.5-8.1,6.1-10.8,10.8c-5.6,9.8-5,22.3,1.7,31.6
		c3.3,4.6,7.8,8,13.2,10c11,4.2,24,0.9,31.9-7.8c2.9-3.2,4.9-7.1,6.2-11.2c0.5-2,0.9-3.9,1-5.9C409.8,56.5,409.4,54.6,409.4,52.7
		L409.4,52.7z"/>
</g>
<g class="st1">
	<path class="st2" d="M431.4,108.7L431.4,108.7L431.4,108.7z"/>
	<path class="st2" d="M452.3,108.8c0,1.4-0.5,2.7-1.4,3.8c-1.8,1.9-4.4,2.6-6.8,1.6c-3.4-1.5-4.5-5.4-2.8-8.4
		c0.9-1.5,2.3-2.1,3.6-3.1c1.8-1.3,3.2-2.6,4.4-4.4c0.2-0.3,0.4-0.7,0.7-1.2c3.2-5.6,2.6-12.5-1.1-17.4c-0.2-0.2-0.5-0.1-0.6,0.1
		c-0.2,1.1-0.6,2.1-1.1,3.1c-1.6,2.8-4.3,4.2-7.4,4.8c-3.3,0.6-6.5,1.1-9.7,1.9c-3.3,0.8-6.5,1.4-9.4,3c-3.3,1.9-6,4.5-8,8
		c-4.2,7.3-3.7,16.6,1.2,23.4c2.4,3.4,5.8,6,9.7,7.4c8.2,3.1,17.8,0.7,23.7-5.8c2.1-2.4,3.6-5.3,4.6-8.3c0.4-1.5,0.7-2.8,0.8-4.4
		C452.6,111.6,452.3,110.2,452.3,108.8L452.3,108.8z"/>
</g>
<g class="st1">
	<path class="st2" d="M437.6,40.5L437.6,40.5L437.6,40.5z"/>
	<path class="st2" d="M451.1,40.6c0,0.9-0.3,1.8-0.9,2.5c-1.1,1.3-2.9,1.7-4.4,1c-2.2-0.9-2.9-3.5-1.8-5.4c0.6-1,1.5-1.4,2.3-2
		c1.2-0.9,2.1-1.7,2.8-2.8c0.1-0.2,0.2-0.5,0.4-0.8c2.1-3.6,1.7-8.1-0.7-11.3c-0.1-0.1-0.3-0.1-0.4,0.1c-0.1,0.8-0.4,1.4-0.8,2
		c-1,1.8-2.8,2.7-4.8,3.1c-2.1,0.4-4.2,0.7-6.2,1.3c-2.1,0.5-4.2,0.9-6.1,2c-2.1,1.2-3.9,2.9-5.2,5.2c-2.7,4.7-2.4,10.7,0.8,15.1
		c1.6,2.2,3.7,3.8,6.3,4.8c5.3,2,11.5,0.4,15.3-3.7c1.4-1.5,2.3-3.4,2.9-5.3c0.2-0.9,0.5-1.8,0.5-2.8
		C451.3,42.4,451.1,41.5,451.1,40.6L451.1,40.6z"/>
</g>
<g>
	<path class="st3" d="M110.5,56.4c18.3,0,33.2,14.8,33.2,33.2c0,15.8-11,28.9-25.7,32.3c-0.6,0.7-1.3,1.3-2,2c-1.1,1.1-2.3,2-3.5,3
		c-1.1,0.9-1.9,2.1-1.9,3.7c0,0.5,0.1,1,0.3,1.5c0.1,0.1,0,0.2-0.1,0.2c0,0,0,0-0.1,0c-2.6-1.1-4.5-3.8-4.5-6.8c0-0.3,0-0.4,0-0.6
		c0.1-0.8,0.2-1.5,0.6-2.3c-16.5-1.9-29.4-15.9-29.4-32.9C77.4,71.2,92.2,56.4,110.5,56.4 M110.5,54.4c-19.4,0-35.2,15.8-35.2,35.2
		c0,17.1,12.3,31.6,28.9,34.6c0,0.2,0,0.3-0.1,0.5l0,0.1v0.1v0.6c0,3.8,2.2,7.2,5.7,8.6c0.3,0.1,0.6,0.2,0.9,0.2
		c0.7,0,1.4-0.4,1.8-1c0.4-0.6,0.4-1.3,0.2-1.9c-0.1-0.2-0.1-0.5-0.1-0.8c0-0.5,0.1-1.2,1.2-2.1c0.3-0.2,0.5-0.4,0.8-0.6
		c0.9-0.8,1.9-1.6,2.8-2.5l0.3-0.3c0.4-0.4,0.9-0.8,1.3-1.3c7.4-1.8,14.1-6.1,18.9-12.1c5-6.2,7.8-14.1,7.8-22.1
		C145.7,70.1,129.9,54.4,110.5,54.4L110.5,54.4z"/>
</g>
<g>
	<g>
		<path class="st3" d="M162.7,60.9h5.9v44.7h-5.9V60.9z"/>
		<path class="st3" d="M177.8,111.7c2.9,1.9,6.2,3.2,9.6,3.2c5.8,0,9.7-3.5,9.7-9.2v-2.2l-0.1-0.1c-2.1,1.5-5,2.3-8.3,2.3
			c-8.3,0-14.9-6.2-14.9-15.2c0-8.6,5.9-15.9,15.8-15.9c3.2,0,5.7,0.8,7.7,1.7l5.4-0.9v30.1c0,8.9-5.9,14.4-15.3,14.4
			c-3.7,0-7.1-1-9.6-2.3L177.8,111.7L177.8,111.7z M189.6,100.8c2.8,0,5.7-1,7.6-2.5V81.6c-1.9-1.2-4.9-2.1-7.6-2.1
			c-6.1,0-10,4.7-10,10.6C179.5,96.2,183.6,100.8,189.6,100.8z"/>
		<path class="st3" d="M208.2,75.3h5.5v3.8l0.1,0.1c2.6-2.6,6.4-4.5,10.6-4.5c3.3,0,6.2,1.2,8.1,3.3c1.6,1.9,2.5,4.3,2.5,9v18.7
			h-5.5V87.9c0-3.2-0.4-5-1.5-6.2c-1.3-1.5-3.2-2-4.9-2c-3.5,0-7.3,2.1-9.5,5v20.8h-5.5L208.2,75.3L208.2,75.3z"/>
		<path class="st3" d="M243.4,60.9c2.1,0,3.9,1.7,3.9,3.9c0,2.2-1.7,3.9-3.9,3.9c-2.1,0-3.9-1.7-3.9-3.9
			C239.5,62.6,241.3,60.9,243.4,60.9z M240.6,75.3h5.5v30.3h-5.5V75.3z"/>
		<path class="st3" d="M257.1,95.1V80.3h-5.6v-5h5.6V67l5.5-0.9v9.2h9.1v5h-9.1v13.7c0,3.8,0.6,7.3,4.5,7.3c1.6,0,3.4-0.6,4.5-1.3
			v5.2c-1.3,0.6-3.4,1.1-5.5,1.1c-2.2,0-4.9-0.6-6.9-2.8C257.9,101.8,257.1,99.3,257.1,95.1z"/>
		<path class="st3" d="M282.3,92c0.8,6,5.2,9.3,11.2,9.3c4.2,0,7.7-1.6,10.5-3.8v5.9c-2.7,1.7-6.9,2.8-10.8,2.8
			c-9.4,0-16.4-6.3-16.4-15.9s7-15.9,15.1-15.9c7.4,0,13.8,5.2,13.8,14.7c0,0.9-0.1,2-0.2,2.8L282.3,92L282.3,92z M282.4,87.6h17.9
			c-0.5-6.1-4.9-8.1-8.6-8.1C287.7,79.6,283.4,82,282.4,87.6z"/>
		<path class="st3" d="M319,84.5V60.9h5.9v23c0,5.5,0.4,9,1.7,11.5c1.5,2.9,4.7,5.4,10.6,5.4c5.4,0,8.8-2.1,10.5-5.4
			c1.5-2.6,1.6-6.2,1.6-11.3V60.9h5.7v23c0,6.5-0.4,11.5-3,15.4c-2.8,4.4-8.2,7-15.1,7c-7,0-12.2-2.7-15-7
			C319.3,95.3,319,90.1,319,84.5z"/>
		<path class="st3" d="M360.4,60.9h5.9v44.7h-5.9V60.9z"/>
	</g>
</g>
<g>
	<circle class="st4" cx="110.5" cy="89.5" r="33.2"/>
	<g>
		<g>
			<path class="st3" d="M111.7,53c-0.5-0.3-1.1-0.4-1.6-0.3c-1.3,0.3-2.9,2.6-3.8,3.7c-1.2,1.4-2.2,2.9-3.1,4.5
				c-4.5,7.9-4.3,17.3-2.4,26c1.2,5.6,3.1,11,5.2,16.3l8.8,0.1c0.4,0,1.8-4.5,2-5c0.6-1.6,1.1-3.3,1.6-4.9c0.9-2.9,1.6-5.9,2.2-8.8
				c0.9-4.7,1.2-9.5,0.4-14.3c-0.6-3.7-1.8-7.2-3.8-10.4C116.4,58.3,114.1,54.1,111.7,53z M110.6,77.2c-2.8,0-5-2.3-5-5
				c0-2.8,2.3-5,5-5c2.8,0,5,2.3,5,5C115.6,75,113.4,77.2,110.6,77.2z"/>
			<path class="st3" d="M117.1,104L117.1,104c1.6-3.8,2.9-7.5,3.8-10.9c1.4,0.8,3.3,4.7,4.3,7.1c0.4,1,0.5,2.7,0.4,3.8
				c-0.3,2.2-1.1,6.1-3.1,8.9c-0.2,0.3-0.6,0.1-0.6-0.2c0.1-0.9,0.1-1.8,0-2.6c-0.1-1.5-0.8-2.8-1.8-3.8
				C119.2,105.2,118,104.3,117.1,104z"/>
			<path class="st5" d="M99,109.9c-0.1,0.8-0.1,1.7,0,2.6c0,0.3-0.4,0.5-0.6,0.2c-2-2.8-2.8-6.7-3-8.9c-0.1-1.1,0-2.8,0.4-3.7
				c0.9-2.3,2.9-6.2,4.4-7.1c0.9,3.4,2.1,7.1,3.7,10.9l0,0c-0.8,0.3-2,1.3-3,2.1C99.8,107.1,99.1,108.4,99,109.9z"/>
			<path class="st5" d="M109.3,53.1c0,0-13.6,14.5,0.6,50.1h-3.8C106.1,103.3,88.5,69.7,109.3,53.1z"/>
		</g>
		<g>
			<path d="M111,116.4L111,116.4L111,116.4z"/>
			<path class="st6" d="M102.5,121.2c-0.3-0.6-0.4-1.2-0.3-1.9c0.3-1.2,1.2-2.1,2.4-2.2c1.7-0.2,3.1,1.1,3.1,2.8
				c0,0.8-0.4,1.4-0.8,2.1c-0.4,0.9-0.7,1.8-0.8,2.8c0,0.2,0,0.4,0,0.6c0,3,1.8,5.7,4.5,6.8c0.1,0.1,0.3-0.1,0.2-0.2
				c-0.2-0.5-0.3-1-0.3-1.5c0-1.5,0.8-2.7,1.9-3.7c1.2-1,2.4-2,3.5-3c1.1-1.1,2.3-2.1,3.1-3.4c0.9-1.5,1.4-3.2,1.4-5.1
				c0-3.9-2.3-7.6-5.9-9.2c-1.8-0.8-3.7-1.1-5.7-0.8c-4,0.6-7.4,3.8-8.3,7.8c-0.3,1.5-0.3,3,0.1,4.4c0.2,0.7,0.4,1.3,0.7,2
				C101.8,120.2,102.2,120.7,102.5,121.2z"/>
			<g>
				<g>
					<defs>
						<path id="SVGID_1_" d="M102.5,121.2c-0.3-0.6-0.4-1.2-0.3-1.9c0.3-1.2,1.2-2.1,2.4-2.2c1.7-0.2,3.1,1.1,3.1,2.8
							c0,0.8-0.4,1.4-0.8,2.1c-0.4,0.9-0.7,1.8-0.8,2.8c0,0.2,0,0.4,0,0.6c0,3,1.8,5.7,4.5,6.8c0.1,0.1,0.3-0.1,0.2-0.2
							c-0.2-0.5-0.3-1-0.3-1.5c0-1.5,0.8-2.7,1.9-3.7c1.2-1,2.4-2,3.5-3c1.1-1.1,2.3-2.1,3.1-3.4c0.9-1.5,1.4-3.2,1.4-5.1
							c0-3.9-2.3-7.6-5.9-9.2c-1.8-0.8-3.7-1.1-5.7-0.8c-4,0.6-7.4,3.8-8.3,7.8c-0.3,1.5-0.3,3,0.1,4.4c0.2,0.7,0.4,1.3,0.7,2
							C101.8,120.2,102.2,120.7,102.5,121.2z"/>
					</defs>
					<clipPath id="SVGID_00000182515648342096796130000018419156482501617851_">
						<use xlink:href="#SVGID_1_"  style="overflow:visible;"/>
					</clipPath>
					<path style="clip-path:url(#SVGID_00000182515648342096796130000018419156482501617851_);fill:#F05A2B;" d="M107.4,121.1
						c0,0,9.8-7.1,3.8-15.9l11.9,0.7l-0.1,28.2l-16.7-0.1C106.3,134.1,102.4,123.7,107.4,121.1z"/>
				</g>
			</g>
		</g>
	</g>
</g>
<circle class="st4" cx="110.5" cy="89.5" r="33.2"/>
<g>
	<g>
		<path class="st3" d="M111.7,53c-0.5-0.3-1.1-0.4-1.6-0.3c-1.3,0.3-2.9,2.6-3.8,3.7c-1.2,1.4-2.2,2.9-3.1,4.5
			c-4.5,7.9-4.3,17.3-2.4,26c1.2,5.6,3.1,11,5.2,16.3l8.8,0.1c0.4,0,1.8-4.5,2-5c0.6-1.6,1.1-3.3,1.6-4.9c0.9-2.9,1.6-5.9,2.2-8.8
			c0.9-4.7,1.2-9.5,0.4-14.3c-0.6-3.7-1.8-7.2-3.8-10.4C116.4,58.3,114.1,54.1,111.7,53z M110.6,77.2c-2.8,0-5-2.3-5-5
			c0-2.8,2.3-5,5-5c2.8,0,5,2.3,5,5C115.6,75,113.4,77.2,110.6,77.2z"/>
		<path class="st3" d="M117.1,104L117.1,104c1.6-3.8,2.9-7.5,3.8-10.9c1.4,0.8,3.3,4.7,4.3,7.1c0.4,1,0.5,2.7,0.4,3.8
			c-0.3,2.2-1.1,6.1-3.1,8.9c-0.2,0.3-0.6,0.1-0.6-0.2c0.1-0.9,0.1-1.8,0-2.6c-0.1-1.5-0.8-2.8-1.8-3.8
			C119.2,105.2,118,104.3,117.1,104z"/>
		<path class="st5" d="M99,109.9c-0.1,0.8-0.1,1.7,0,2.6c0,0.3-0.4,0.5-0.6,0.2c-2-2.8-2.8-6.7-3-8.9c-0.1-1.1,0-2.8,0.4-3.7
			c0.9-2.3,2.9-6.2,4.4-7.1c0.9,3.4,2.1,7.1,3.7,10.9l0,0c-0.8,0.3-2,1.3-3,2.1C99.8,107.1,99.1,108.4,99,109.9z"/>
		<path class="st5" d="M109.3,53.1c0,0-13.6,14.5,0.6,50.1h-3.8C106.1,103.3,88.5,69.7,109.3,53.1z"/>
	</g>
	<g>
		<path d="M111,116.4L111,116.4L111,116.4z"/>
		<path class="st6" d="M102.5,121.2c-0.3-0.6-0.4-1.2-0.3-1.9c0.3-1.2,1.2-2.1,2.4-2.2c1.7-0.2,3.1,1.1,3.1,2.8
			c0,0.8-0.4,1.4-0.8,2.1c-0.4,0.9-0.7,1.8-0.8,2.8c0,0.2,0,0.4,0,0.6c0,3,1.8,5.7,4.5,6.8c0.1,0.1,0.3-0.1,0.2-0.2
			c-0.2-0.5-0.3-1-0.3-1.5c0-1.5,0.8-2.7,1.9-3.7c1.2-1,2.4-2,3.5-3c1.1-1.1,2.3-2.1,3.1-3.4c0.9-1.5,1.4-3.2,1.4-5.1
			c0-3.9-2.3-7.6-5.9-9.2c-1.8-0.8-3.7-1.1-5.7-0.8c-4,0.6-7.4,3.8-8.3,7.8c-0.3,1.5-0.3,3,0.1,4.4c0.2,0.7,0.4,1.3,0.7,2
			C101.8,120.2,102.2,120.7,102.5,121.2z"/>
		<g>
			<g>
				<defs>
					<path id="SVGID_00000058589112727569555190000013660616083435313030_" d="M102.5,121.2c-0.3-0.6-0.4-1.2-0.3-1.9
						c0.3-1.2,1.2-2.1,2.4-2.2c1.7-0.2,3.1,1.1,3.1,2.8c0,0.8-0.4,1.4-0.8,2.1c-0.4,0.9-0.7,1.8-0.8,2.8c0,0.2,0,0.4,0,0.6
						c0,3,1.8,5.7,4.5,6.8c0.1,0.1,0.3-0.1,0.2-0.2c-0.2-0.5-0.3-1-0.3-1.5c0-1.5,0.8-2.7,1.9-3.7c1.2-1,2.4-2,3.5-3
						c1.1-1.1,2.3-2.1,3.1-3.4c0.9-1.5,1.4-3.2,1.4-5.1c0-3.9-2.3-7.6-5.9-9.2c-1.8-0.8-3.7-1.1-5.7-0.8c-4,0.6-7.4,3.8-8.3,7.8
						c-0.3,1.5-0.3,3,0.1,4.4c0.2,0.7,0.4,1.3,0.7,2C101.8,120.2,102.2,120.7,102.5,121.2z"/>
				</defs>
				<clipPath id="SVGID_00000164509867457916342540000005667236413140805259_">
					<use xlink:href="#SVGID_00000058589112727569555190000013660616083435313030_"  style="overflow:visible;"/>
				</clipPath>
				<path style="clip-path:url(#SVGID_00000164509867457916342540000005667236413140805259_);fill:#F05A2B;" d="M107.4,121.1
					c0,0,9.8-7.1,3.8-15.9l11.9,0.7l-0.1,28.2l-16.7-0.1C106.3,134.1,102.4,123.7,107.4,121.1z"/>
			</g>
		</g>
	</g>
</g>
</svg>
