<svg xmlns="http://www.w3.org/2000/svg" xmlns:xlink="http://www.w3.org/1999/xlink" width="552" height="165" viewBox="0 0 552 165">
  <defs>
    <polygon id="igniteui-angular_logo-a" points=".042 .037 41.948 .037 41.948 68 .042 68"/>
    <polygon id="igniteui-angular_logo-c" points=".974 .025 42.661 .025 42.661 116.656 .974 116.656"/>
  </defs>
  <g fill="none" fill-rule="evenodd">
    <g fill="#000" fill-opacity=".87" transform="translate(190 -6)">
      <text font-family="TitilliumWeb-Regular, Titillium Web" font-size="57.6">
        <tspan x="0" y="65">Ignite UI</tspan>
      </text>
      <text font-family="TitilliumWeb-SemiBold, Titillium Web" font-size="86.4" font-weight="500">
        <tspan x="0" y="151">ANGULAR</tspan>
      </text>
      <text font-family="TitilliumWeb-Regular, Titillium Web" font-size="24">
        <tspan x="207" y="33">TM</tspan>
      </text>
    </g>
    <path fill="#F60" d="M47.280871,92.7030414 C47.280871,92.309492 47.280871,91.9290608 47.2939719,91.5486297 L47.280871,91.5486297 L47.280871,92.7030414 Z M47.280871,92.7030414 L47.280871,91.5486297 L47.280871,42.25 L47.280871,3 L0,3 L0,99.0654245 L0,99.0916611 C0,132.74014 23.122953,160 73.9934496,160 C122.807117,160 148,132.74014 148,99.0916611 L148,99.0654245 L148,3 L100.719129,3 L100.719129,42.25 L100.719129,91.5486297 L100.719129,92.7030414 C100.719129,109.363302 88.7580774,122.875167 73.9934496,122.875167 C59.2419226,122.875167 47.280871,109.363302 47.280871,92.7030414 Z M100.719129,91.5486297 L100.706028,91.5486297 C100.719129,91.9290608 100.719129,92.309492 100.719129,92.7030414 L100.719129,91.5486297 Z"/>
    <g transform="translate(55 97)">
      <mask id="igniteui-angular_logo-b" fill="#fff">
        <use xlink:href="#igniteui-angular_logo-a"/>
      </mask>
      <path fill="#FFF" d="M41.9477485,21.1174 C41.9477485,9.47893846 32.5659303,0.0374 20.9689606,0.0374 C9.42411212,0.0374 0.0422939394,9.47893846 0.0422939394,21.1174 C0.0422939394,29.0681692 4.27714242,35.6327846 10.7141121,39.2289385 C12.2777485,39.5558615 13.3201727,39.8435538 12.1735061,38.7450923 C9.25471818,35.8681692 9.68471818,33.9458615 9.68471818,33.9458615 L9.68471818,33.5143231 C9.68471818,31.3697077 11.8868394,29.2120154 13.9716879,29.2120154 C16.0565364,29.2120154 18.5062333,31.3958615 18.5062333,33.5666308 L18.5062333,34.4427846 C18.6756273,37.2543231 14.6883545,43.5050923 14.6883545,43.5050923 L14.5710818,43.4397077 C13.7501727,45.6497077 13.0335061,48.1997077 13.0335061,51.7697077 C13.0335061,62.5843231 21.2816879,66.0497077 24.4871424,67.4358615 C26.2592636,67.9327846 29.9859303,68.7435538 27.262597,66.5335538 C23.2362333,63.2904769 21.4250212,61.5381692 21.2816879,57.1574 C21.2816879,57.1574 20.6301727,52.7243231 28.5265364,44.8127846 C38.7683545,34.5343231 40.423203,29.8920154 40.6577485,28.4012462 C41.4916879,26.1389385 41.9477485,23.7066308 41.9477485,21.1174" mask="url(#igniteui-angular_logo-b)"/>
    </g>
    <g transform="translate(55)">
      <mask id="igniteui-angular_logo-d" fill="#fff">
        <use xlink:href="#igniteui-angular_logo-c"/>
      </mask>
      <path fill="#666" d="M40.6413848,116.038234 L40.6544152,116.156548 L40.7716879,116.656099 C41.6968394,111.147897 42.6610818,105.337335 42.6610818,99.316436 C42.6610818,86.4332899 40.3938091,74.4572225 36.5107788,64.5056494 C37.4229,59.2603685 37.9050212,53.6601438 37.9050212,47.836436 C37.9050212,27.0130652 31.6244152,9.00295281 22.4510818,0.24767191 L22.2165364,0.024188764 L21.9689606,0.24767191 C12.8216879,9.00295281 6.52805152,27.0130652 6.52805152,47.836436 C6.52805152,51.8591326 7.02320303,59.549582 7.21865758,59.536436 C7.40108182,59.536436 1.13350606,71.052391 1.01623333,90.7189079 C0.925021212,104.114751 0.990172727,109.478346 1.13350606,110.26711 C1.26380909,109.478346 17.7471424,88.9178966 17.7471424,88.9178966 C16.7829,86.8934022 12.7174455,77.480818 12.7174455,52.7530652 C12.7174455,35.5843011 16.5092636,17.1666607 22.073203,9.9757618 L22.2165364,9.79171685 L22.3598697,9.9757618 C27.9107788,17.1666607 31.7286576,35.5843011 31.7286576,52.7530652 L31.7156273,54.5935146 C29.0183545,50.0712674 25.9301727,46.2589079 22.5292636,43.3273348 L22.2165364,43.0775596 L22.2165364,87.4718292 C25.2786576,89.2202562 36.8756273,107.677335 40.6413848,116.038234" mask="url(#igniteui-angular_logo-d)"/>
    </g>
  </g>
</svg>
