<svg xmlns="http://www.w3.org/2000/svg" xmlns:xlink="http://www.w3.org/1999/xlink" width="553" height="165" viewBox="0 0 553 165">
  <defs>
    <path id="igniteui-angular_logo-a" d="M4.896,65 L4.896,25.1408 L9.3312,25.1408 L9.3312,65 L4.896,65 Z M28.8576,78.536 C24.249577,78.536 21.0336091,77.9120062 19.2096,76.664 C17.3855909,75.4159938 16.4736,73.1408165 16.4736,69.8384 C16.4736,68.2639921 16.8191965,66.9872049 17.5104,66.008 C18.2016035,65.0287951 19.3727917,63.9248061 21.024,62.696 C19.9487946,61.9663964 19.4112,60.6416096 19.4112,58.7216 C19.4112,58.0687967 19.8911952,56.8592088 20.8512,55.0928 L21.3696,54.1712 C18.3359848,52.7887931 16.8192,49.8896221 16.8192,45.4736 C16.8192,38.9071672 20.4095641,35.624 27.5904,35.624 C29.4336092,35.624 31.1423921,35.8159981 32.7168,36.2 L33.5808,36.3728 L42.1056,36.1424 L42.1056,39.8288 L36.6336,39.7136 C37.9008063,40.9808063 38.5344,42.9007871 38.5344,45.4736 C38.5344,49.083218 37.6416089,51.6079928 35.856,53.048 C34.0703911,54.4880072 31.2576192,55.208 27.4176,55.208 C26.3807948,55.208 25.4400042,55.1312008 24.5952,54.9776 C23.9039965,56.6672084 23.5584,57.7615975 23.5584,58.2608 C23.5584,59.451206 23.9231964,60.1903986 24.6528,60.4784 C25.3824036,60.7664014 27.5903816,60.9104 31.2768,60.9104 C34.9632184,60.9104 37.6127919,61.4863942 39.2256,62.6384 C40.8384081,63.7904058 41.6448,66.0367833 41.6448,69.3776 C41.6448,75.4832305 37.3824426,78.536 28.8576,78.536 Z M20.736,69.4928 C20.736,71.5280102 21.3023943,72.9391961 22.4352,73.7264 C23.5680057,74.5136039 25.6607847,74.9072 28.7136,74.9072 C31.7664153,74.9072 33.9551934,74.4848042 35.28,73.64 C36.6048066,72.7951958 37.2672,71.3840099 37.2672,69.4064 C37.2672,67.4287901 36.7872048,66.1520029 35.8272,65.576 C34.8671952,64.9999971 32.985614,64.712 30.1824,64.712 L23.9616,64.424 C22.6943937,65.3456046 21.8400022,66.1519965 21.3984,66.8432 C20.9567978,67.5344035 20.736,68.4175946 20.736,69.4928 Z M21.1392,45.4736 C21.1392,47.7392113 21.6479949,49.3519952 22.6656,50.312 C23.6832051,51.2720048 25.3631883,51.752 27.7056,51.752 C30.0480117,51.752 31.718395,51.2720048 32.7168,50.312 C33.715205,49.3519952 34.2144,47.7296114 34.2144,45.4448 C34.2144,43.1599886 33.715205,41.5376048 32.7168,40.5776 C31.718395,39.6175952 30.0480117,39.1376 27.7056,39.1376 C25.3631883,39.1376 23.6832051,39.6271951 22.6656,40.6064 C21.6479949,41.5856049 21.1392,43.2079887 21.1392,45.4736 Z M51.6672,65 L47.3472,65 L47.3472,36.2 L51.6096,36.2 L51.6096,38.216 C54.7200156,36.4879914 57.6959858,35.624 60.5376,35.624 C64.3776192,35.624 66.9599934,36.6607896 68.2848,38.7344 C69.6096066,40.8080104 70.272,44.4943735 70.272,49.7936 L70.272,65 L66.0096,65 L66.0096,49.9088 C66.0096,45.91518 65.6160039,43.1792074 64.8288,41.7008 C64.0415961,40.2223926 62.3616129,39.4832 59.7888,39.4832 C58.5599939,39.4832 57.2640068,39.6655982 55.9008,40.0304 C54.5375932,40.3952018 53.4912036,40.7503983 52.7616,41.096 L51.6672,41.6144 L51.6672,65 Z M78.2784,65 L78.2784,36.2 L82.5984,36.2 L82.5984,65 L78.2784,65 Z M78.2784,29.6912 L78.2784,24.68 L82.5984,24.68 L82.5984,29.6912 L78.2784,29.6912 Z M105.8112,39.944 L96.6528,39.944 L96.6528,53.7104 C96.6528,57.0128165 96.8927976,59.1823948 97.3728,60.2192 C97.8528024,61.2560052 98.995191,61.7744 100.8,61.7744 L105.9264,61.4288 L106.2144,65 C103.641587,65.4224021 101.683207,65.6336 100.3392,65.6336 C97.343985,65.6336 95.2704058,64.9040073 94.1184,63.4448 C92.9663942,61.9855927 92.3904,59.2016205 92.3904,55.0928 L92.3904,39.944 L88.3008,39.944 L88.3008,36.2 L92.3904,36.2 L92.3904,27.3872 L96.6528,27.3872 L96.6528,36.2 L105.8112,36.2 L105.8112,39.944 Z M130.6944,61.4288 L132.3648,61.256 L132.48,64.6544 C128.102378,65.2688031 124.358416,65.576 121.248,65.576 C117.100779,65.576 114.163209,64.376012 112.4352,61.976 C110.707191,59.575988 109.8432,55.8416253 109.8432,50.7728 C109.8432,40.6735495 113.85596,35.624 121.8816,35.624 C125.760019,35.624 128.65919,36.7087892 130.5792,38.8784 C132.49921,41.0480108 133.4592,44.4559768 133.4592,49.1024 L133.2288,52.3856 L114.2208,52.3856 C114.2208,55.5728159 114.796794,57.9343923 115.9488,59.4704 C117.100806,61.0064077 119.107186,61.7744 121.968,61.7744 C124.828814,61.7744 127.737585,61.6592012 130.6944,61.4288 Z M129.1392,48.9296 C129.1392,45.3967823 128.572806,42.9008073 127.44,41.4416 C126.307194,39.9823927 124.464013,39.2528 121.9104,39.2528 C119.356787,39.2528 117.436806,40.0207923 116.1504,41.5568 C114.863994,43.0928077 114.2016,45.5503831 114.1632,48.9296 L129.1392,48.9296 Z M157.7664,53.0192 C157.7664,58.7792288 160.876769,61.6592 167.0976,61.6592 C170.323216,61.6592 172.751992,60.9776068 174.384,59.6144 C176.016008,58.2511932 176.832,56.0528152 176.832,53.0192 L176.832,25.1408 L181.2096,25.1408 L181.2096,52.904 C181.2096,57.3584223 180.028812,60.58399 177.6672,62.5808 C175.305588,64.57761 171.820823,65.576 167.2128,65.576 C162.604777,65.576 159.139212,64.57761 156.816,62.5808 C154.492788,60.58399 153.3312,57.3584223 153.3312,52.904 L153.3312,25.1408 L157.7664,25.1408 L157.7664,53.0192 Z M190.7136,65 L190.7136,25.1408 L195.1488,25.1408 L195.1488,65 L190.7136,65 Z"/>
    <path id="igniteui-angular_logo-b" d="M1.728,98 L16.3296,38.816 L35.424,38.816 L50.112,98 L40.4352,98 L37.2384,85.2992 L14.5152,85.2992 L11.3184,98 L1.728,98 Z M23.76,46.8512 L16.416,76.832 L35.3376,76.832 L28.08,46.8512 L23.76,46.8512 Z M58.5792,98 L58.5792,38.816 L75.3408,38.816 L93.312,89.5328 L94.608,89.5328 L94.608,38.816 L104.1984,38.816 L104.1984,98 L87.7824,98 L69.3792,47.1968 L68.1696,47.1968 L68.1696,98 L58.5792,98 Z M141.9552,75.3632 L141.9552,66.896 L158.8032,66.896 L158.8032,96.9632 C157.247992,97.366402 154.094424,97.7983977 149.3424,98.2592 C144.590376,98.7200023 141.148811,98.9504 139.0176,98.9504 C130.031955,98.9504 123.840017,96.4736248 120.4416,91.52 C117.043183,86.5663752 115.344,78.8048528 115.344,68.2352 C115.344,57.6655472 117.086383,49.9616242 120.5712,45.1232 C124.056017,40.2847758 130.089557,37.8656 138.672,37.8656 C143.740825,37.8656 149.443168,38.4415942 155.7792,39.5936 L158.8032,40.1984 L158.4576,47.8016 C151.487965,46.8799954 145.238428,46.4192 139.7088,46.4192 C134.179172,46.4192 130.39201,47.9743844 128.3472,51.0848 C126.30239,54.1952156 125.28,59.955158 125.28,68.3648 C125.28,76.774442 126.24479,82.577584 128.1744,85.7744 C130.10401,88.971216 134.006371,90.5696 139.8816,90.5696 C144.086421,90.5696 147.22559,90.3104026 149.2992,89.792 L149.2992,75.3632 L141.9552,75.3632 Z M179.9712,79.0784 C179.9712,86.7392383 184.00316,90.5696 192.0672,90.5696 C200.13124,90.5696 204.1632,86.7392383 204.1632,79.0784 L204.1632,38.816 L213.84,38.816 L213.84,78.9056 C213.84,85.8752348 212.011218,90.958384 208.3536,94.1552 C204.695982,97.352016 199.252836,98.9504 192.024,98.9504 C184.795164,98.9504 179.366418,97.352016 175.7376,94.1552 C172.108782,90.958384 170.2944,85.8752348 170.2944,78.9056 L170.2944,38.816 L179.9712,38.816 L179.9712,79.0784 Z M260.1504,98 L226.9728,98 L226.9728,38.816 L236.5632,38.816 L236.5632,89.4464 L260.1504,89.4464 L260.1504,98 Z M262.9152,98 L277.5168,38.816 L296.6112,38.816 L311.2992,98 L301.6224,98 L298.4256,85.2992 L275.7024,85.2992 L272.5056,98 L262.9152,98 Z M284.9472,46.8512 L277.6032,76.832 L296.5248,76.832 L289.2672,46.8512 L284.9472,46.8512 Z M329.3568,76.9184 L329.3568,98 L319.7664,98 L319.7664,38.816 L342.2304,38.816 C355.593667,38.816 362.2752,45.0943372 362.2752,57.6512 C362.2752,66.060842 359.049632,71.763185 352.5984,74.7584 L362.3616,98 L351.8208,98 L343.2672,76.9184 L329.3568,76.9184 Z M352.4256,57.7376 C352.4256,50.6527646 349.027234,47.1104 342.2304,47.1104 L329.3568,47.1104 L329.3568,68.624 L342.4032,68.624 C345.859217,68.624 348.393592,67.6304099 350.0064,65.6432 C351.619208,63.6559901 352.4256,61.0208164 352.4256,57.7376 Z"/>
    <path id="igniteui-angular_logo-c" d="M0.312,12.048 L0.312,10.392 L12.312,10.392 L12.312,12.048 L7.248,12.048 L7.248,27 L5.424,27 L5.424,12.048 L0.312,12.048 Z M14.664,27 L14.664,10.392 L18,10.392 L22.704,24.432 L27.408,10.392 L30.744,10.392 L30.744,27 L28.896,27 L28.896,12.36 L28.56,12.36 L23.736,26.4 L21.672,26.4 L16.848,12.36 L16.512,12.36 L16.512,27 L14.664,27 Z"/>
    <polygon id="igniteui-angular_logo-d" points=".042 .037 41.948 .037 41.948 68 .042 68"/>
    <polygon id="igniteui-angular_logo-f" points=".974 .025 42.661 .025 42.661 116.656 .974 116.656"/>
  </defs>
  <g fill="none" fill-rule="evenodd" transform="translate(0 -6)">
    <g fill="#000" transform="translate(190)">
      <use xlink:href="#igniteui-angular_logo-a"/>
      <use fill-opacity=".87" xlink:href="#igniteui-angular_logo-a"/>
      <g transform="translate(0 53)">
        <use xlink:href="#igniteui-angular_logo-b"/>
        <use fill-opacity=".87" xlink:href="#igniteui-angular_logo-b"/>
      </g>
      <g transform="translate(207 6)">
        <use xlink:href="#igniteui-angular_logo-c"/>
        <use fill-opacity=".87" xlink:href="#igniteui-angular_logo-c"/>
      </g>
    </g>
    <path fill="#F60" fill-rule="nonzero" d="M47.280871,98.7030414 C47.280871,98.309492 47.280871,97.9290608 47.2939719,97.5486297 L47.280871,97.5486297 L47.280871,98.7030414 Z M47.280871,98.7030414 L47.280871,97.5486297 L47.280871,48.25 L47.280871,9 L0,9 L0,105.065424 L0,105.091661 C0,138.74014 23.122953,166 73.9934496,166 C122.807117,166 148,138.74014 148,105.091661 L148,105.065424 L148,9 L100.719129,9 L100.719129,48.25 L100.719129,97.5486297 L100.719129,98.7030414 C100.719129,115.363302 88.7580774,128.875167 73.9934496,128.875167 C59.2419226,128.875167 47.280871,115.363302 47.280871,98.7030414 Z M100.719129,97.5486297 L100.706028,97.5486297 C100.719129,97.9290608 100.719129,98.309492 100.719129,98.7030414 L100.719129,97.5486297 Z"/>
    <g transform="translate(55 103)">
      <mask id="igniteui-angular_logo-e" fill="#fff">
        <use xlink:href="#igniteui-angular_logo-d"/>
      </mask>
      <path fill="#FFF" fill-rule="nonzero" d="M41.9477485,21.1174 C41.9477485,9.47893846 32.5659303,0.0374 20.9689606,0.0374 C9.42411212,0.0374 0.0422939394,9.47893846 0.0422939394,21.1174 C0.0422939394,29.0681692 4.27714242,35.6327846 10.7141121,39.2289385 C12.2777485,39.5558615 13.3201727,39.8435538 12.1735061,38.7450923 C9.25471818,35.8681692 9.68471818,33.9458615 9.68471818,33.9458615 L9.68471818,33.5143231 C9.68471818,31.3697077 11.8868394,29.2120154 13.9716879,29.2120154 C16.0565364,29.2120154 18.5062333,31.3958615 18.5062333,33.5666308 L18.5062333,34.4427846 C18.6756273,37.2543231 14.6883545,43.5050923 14.6883545,43.5050923 L14.5710818,43.4397077 C13.7501727,45.6497077 13.0335061,48.1997077 13.0335061,51.7697077 C13.0335061,62.5843231 21.2816879,66.0497077 24.4871424,67.4358615 C26.2592636,67.9327846 29.9859303,68.7435538 27.262597,66.5335538 C23.2362333,63.2904769 21.4250212,61.5381692 21.2816879,57.1574 C21.2816879,57.1574 20.6301727,52.7243231 28.5265364,44.8127846 C38.7683545,34.5343231 40.423203,29.8920154 40.6577485,28.4012462 C41.4916879,26.1389385 41.9477485,23.7066308 41.9477485,21.1174" mask="url(#igniteui-angular_logo-e)"/>
    </g>
    <g transform="translate(55 6)">
      <mask id="igniteui-angular_logo-g" fill="#fff">
        <use xlink:href="#igniteui-angular_logo-f"/>
      </mask>
      <path fill="#666" fill-rule="nonzero" d="M40.6413848,116.038234 L40.6544152,116.156548 L40.7716879,116.656099 C41.6968394,111.147897 42.6610818,105.337335 42.6610818,99.316436 C42.6610818,86.4332899 40.3938091,74.4572225 36.5107788,64.5056494 C37.4229,59.2603685 37.9050212,53.6601438 37.9050212,47.836436 C37.9050212,27.0130652 31.6244152,9.00295281 22.4510818,0.24767191 L22.2165364,0.024188764 L21.9689606,0.24767191 C12.8216879,9.00295281 6.52805152,27.0130652 6.52805152,47.836436 C6.52805152,51.8591326 7.02320303,59.549582 7.21865758,59.536436 C7.40108182,59.536436 1.13350606,71.052391 1.01623333,90.7189079 C0.925021212,104.114751 0.990172727,109.478346 1.13350606,110.26711 C1.26380909,109.478346 17.7471424,88.9178966 17.7471424,88.9178966 C16.7829,86.8934022 12.7174455,77.480818 12.7174455,52.7530652 C12.7174455,35.5843011 16.5092636,17.1666607 22.073203,9.9757618 L22.2165364,9.79171685 L22.3598697,9.9757618 C27.9107788,17.1666607 31.7286576,35.5843011 31.7286576,52.7530652 L31.7156273,54.5935146 C29.0183545,50.0712674 25.9301727,46.2589079 22.5292636,43.3273348 L22.2165364,43.0775596 L22.2165364,87.4718292 C25.2786576,89.2202562 36.8756273,107.677335 40.6413848,116.038234" mask="url(#igniteui-angular_logo-g)"/>
    </g>
  </g>
</svg>
